<mxfile host="app.diagrams.net" modified="2024-01-06T14:22:07.850Z" agent="Mozilla/5.0 (Macintosh; Intel Mac OS X 10_15_7) AppleWebKit/537.36 (KHTML, like Gecko) Chrome/120.0.0.0 Safari/537.36" version="22.1.17" etag="bWR8jJ9mBZN2uOaqE_RB" type="github">
  <diagram name="Page-1" id="ZF_J5g5vlsZJm-P8UBtU">
    <mxGraphModel>
      <root>
        <mxCell id="0" />
        <mxCell id="1" parent="0" />
      </root>
    </mxGraphModel>
  </diagram>
</mxfile>
